#!OML:ASF X:\für Bonn\!DataBase\2005_08_10_Bjorn_Final\c3d\bjorn.ASF
:FULLY-SPECIFIED
:DEGREES
244
root -0.30491 18.8177 8.05345 -408.979 434.101 -414.263
lowerback -2.54841 6.93392 8.0766
upperback 5.57528 8.98951 -0.890239
thorax 8.76183 4.99205 -4.38838
lowerneck -2.75518 -3.15807 1.47097
upperneck 3.65468 -4.36632 2.60275
head 1.62497 -2.09625 0.465315
rclavicle -5.1684e-014 -2.22639e-014
rhumerus -35.0136 22.1977 -104.232
rradius 104.926
rwrist 3.03628
rhand -24.973 30.8495
rfingers 7.12502
rthumb 1.53767 0.875267
lclavicle -5.1684e-014 -2.22639e-014
lhumerus -57.0703 -23.9072 96.9067
lradius 88.5471
lwrist -13.6676
lhand -56.4521 -32.1242
lfingers 7.12502
lthumb -28.7682 -4.32083
rfemur 16.4616 -7.42405 18.4913
rtibia 29.3678
rfoot 3.20461 9.48823
rtoes -36.5143
lfemur -34.4979 14.0872 -27.0774
ltibia 34.302
lfoot -7.62723 -4.89823
ltoes -0.536836
245
root -0.0086669 18.7789 8.1177 -411.339 434.499 -416.304
lowerback -2.66987 6.94043 8.18738
upperback 5.79009 9.00164 -1.0758
thorax 9.12684 5.03284 -4.60736
lowerneck -2.95852 -3.12988 1.49299
upperneck 3.57464 -4.33774 2.72452
head 1.63761 -2.07875 0.497353
rclavicle -9.02482e-014 4.29375e-014
rhumerus -35.491 22.2882 -104.65
rradius 104.325
rwrist 3.51307
rhand -24.5155 30.7023
rfingers 7.12502
rthumb 1.97954 0.731743
lclavicle -9.02482e-014 4.29375e-014
lhumerus -56.2479 -23.8223 96.4347
lradius 88.7587
lwrist -13.7269
lhand -56.373 -32.0004
lfingers 7.12502
lthumb -28.6926 -4.18416
rfemur 15.9904 -7.42312 18.1713
rtibia 32.2681
rfoot 2.58989 10.1629
rtoes -37.3023
lfemur -33.6093 13.9696 -27.2598
ltibia 34.2281
lfoot -7.52903 -4.47798
ltoes 2.68659
246
root 0.287784 18.7285 8.17738 -413.892 434.901 -418.463
lowerback -2.69264 6.92866 8.32521
upperback 6.02227 8.99681 -1.24136
thorax 9.45382 5.06869 -4.83458
lowerneck -3.00239 -3.112 1.36054
upperneck 3.26301 -4.30866 2.93546
head 1.55404 -2.06681 0.58718
rclavicle -5.68524e-014 3.33958e-014
rhumerus -36.1032 22.1716 -105.106
rradius 103.588
rwrist 4.1636
rhand -24.3528 30.5452
rfingers 7.12502
rthumb 2.1366 0.576151
lclavicle -5.68524e-014 3.33958e-014
lhumerus -55.335 -23.6772 95.9992
lradius 88.9826
lwrist -14.0338
lhand -56.2684 -32.0895
lfingers 7.12502
lthumb -28.5927 -4.25641
rfemur 15.5597 -7.4974 17.7386
rtibia 35.2387
rfoot 2.04212 10.6882
rtoes -38.3202
lfemur -32.6134 13.7103 -27.385
ltibia 34.4991
lfoot -7.74351 -3.88913
ltoes 5.68648
247
root 0.583616 18.6636 8.23421 -416.748 435.247 -420.861
lowerback -2.60373 6.90745 8.53059
upperback 6.23942 8.98504 -1.39118
thorax 9.70826 5.10533 -5.09867
lowerneck -3.11671 -3.09934 1.19408
upperneck 3.08426 -4.29176 3.2215
head 1.52868 -2.0564 0.703726
rclavicle -1.09729e-013 0
rhumerus -36.8387 21.8795 -105.597
rradius 102.737
rwrist 4.79389
rhand -24.5598 30.323
rfingers 7.12502
rthumb 1.93673 0.352005
lclavicle -1.09729e-013 0
lhumerus -54.3167 -23.4869 95.5528
lradius 89.18
lwrist -14.7646
lhand -56.2412 -32.3864
lfingers 7.12502
lthumb -28.5667 -4.54899
rfemur 15.1884 -7.59007 17.294
rtibia 38.2253
rfoot 1.56158 11.0339
rtoes -39.4057
lfemur -31.5398 13.1305 -27.3537
ltibia 35.0939
lfoot -8.25905 -3.02228
ltoes 8.05013
248
root 0.876549 18.5853 8.2882 -419.753 435.604 -423.293
lowerback -2.36159 6.89113 8.72415
upperback 6.48464 8.99873 -1.55012
thorax 9.90924 5.1577 -5.37996
lowerneck -3.34841 -3.11122 1.10362
upperneck 2.96815 -4.31384 3.4825
head 1.54201 -2.06244 0.796946
rclavicle -3.1408e-014 1.74931e-014
rhumerus -37.5299 21.3425 -106.076
rradius 101.733
rwrist 5.38116
rhand -24.7725 29.9689
rfingers 7.12502
rthumb 1.73129 -0.00383299
lclavicle -3.1408e-014 1.74931e-014
lhumerus -53.1483 -23.3967 95.1106
lradius 89.4619
lwrist -15.7418
lhand -56.2819 -32.6286
lfingers 7.12502
lthumb -28.6056 -4.79769
rfemur 14.921 -7.65044 16.745
rtibia 41.1911
rfoot 0.829417 11.4405
rtoes -40.5328
lfemur -30.3809 12.4111 -27.326
ltibia 35.9511
lfoot -9.05206 -2.01981
ltoes 9.45321
